<?xml version="1.0" encoding="UTF-8"?>
<svg xmlns="http://www.w3.org/2000/svg" xmlns:xlink="http://www.w3.org/1999/xlink" width="20pt" height="20pt" viewBox="0 0 20 20" version="1.1">
<g id="surface1">
<path style=" stroke:none;fill-rule:nonzero;fill:rgb(0%,0%,0%);fill-opacity:1;" d="M 14.191406 0 L 5.808594 0 C 2.605469 0 0 2.605469 0 5.808594 L 0 14.191406 C 0 17.394531 2.605469 20 5.808594 20 L 14.191406 20 C 17.394531 20 20 17.394531 20 14.191406 L 20 5.808594 C 20 2.605469 17.394531 0 14.191406 0 Z M 18.4375 14.191406 C 18.4375 16.53125 16.53125 18.4375 14.191406 18.4375 L 5.808594 18.4375 C 3.46875 18.4375 1.5625 16.53125 1.5625 14.191406 L 1.5625 5.808594 C 1.5625 3.46875 3.46875 1.5625 5.808594 1.5625 L 14.191406 1.5625 C 16.53125 1.5625 18.4375 3.46875 18.4375 5.808594 Z M 18.4375 14.191406 "/>
<path style=" stroke:none;fill-rule:nonzero;fill:rgb(0%,0%,0%);fill-opacity:1;" d="M 10 4.609375 C 7.027344 4.609375 4.609375 7.027344 4.609375 10 C 4.609375 12.972656 7.027344 15.390625 10 15.390625 C 12.972656 15.390625 15.390625 12.972656 15.390625 10 C 15.390625 7.027344 12.972656 4.609375 10 4.609375 Z M 10 13.828125 C 7.890625 13.828125 6.171875 12.109375 6.171875 10 C 6.171875 7.890625 7.890625 6.171875 10 6.171875 C 12.109375 6.171875 13.828125 7.890625 13.828125 10 C 13.828125 12.109375 12.109375 13.828125 10 13.828125 Z M 10 13.828125 "/>
<path style=" stroke:none;fill-rule:nonzero;fill:rgb(0%,0%,0%);fill-opacity:1;" d="M 16.25 4.53125 C 16.25 4.960938 15.898438 5.3125 15.46875 5.3125 C 15.039062 5.3125 14.6875 4.960938 14.6875 4.53125 C 14.6875 4.101562 15.039062 3.75 15.46875 3.75 C 15.898438 3.75 16.25 4.101562 16.25 4.53125 Z M 16.25 4.53125 "/>
</g>
</svg>
