<?xml version="1.0" encoding="UTF-8"?>
<svg xmlns="http://www.w3.org/2000/svg" xmlns:xlink="http://www.w3.org/1999/xlink" width="20pt" height="20pt" viewBox="0 0 20 20" version="1.1">
<g id="surface1">
<path fill="#ffffff" d="M 6.445312 12.929688 L 17.070312 12.929688 C 17.332031 12.929688 17.5625 12.757812 17.632812 12.503906 L 19.976562 4.300781 C 20.027344 4.125 19.992188 3.933594 19.882812 3.789062 C 19.769531 3.640625 19.597656 3.554688 19.414062 3.554688 L 5.09375 3.554688 L 4.671875 1.667969 C 4.613281 1.402344 4.375 1.210938 4.101562 1.210938 L 0.585938 1.210938 C 0.261719 1.210938 0 1.472656 0 1.796875 C 0 2.121094 0.261719 2.382812 0.585938 2.382812 L 3.632812 2.382812 C 3.707031 2.71875 5.636719 11.402344 5.746094 11.902344 C 5.125 12.171875 4.6875 12.792969 4.6875 13.515625 C 4.6875 14.484375 5.476562 15.273438 6.445312 15.273438 L 17.070312 15.273438 C 17.394531 15.273438 17.65625 15.011719 17.65625 14.6875 C 17.65625 14.363281 17.394531 14.101562 17.070312 14.101562 L 6.445312 14.101562 C 6.121094 14.101562 5.859375 13.839844 5.859375 13.515625 C 5.859375 13.191406 6.121094 12.929688 6.445312 12.929688 Z M 18.636719 4.726562 L 16.628906 11.757812 L 6.914062 11.757812 L 5.351562 4.726562 Z M 18.636719 4.726562 "/>
<path fill="#ffffff" d="M 5.859375 17.03125 C 5.859375 18 6.648438 18.789062 7.617188 18.789062 C 8.585938 18.789062 9.375 18 9.375 17.03125 C 9.375 16.0625 8.585938 15.273438 7.617188 15.273438 C 6.648438 15.273438 5.859375 16.0625 5.859375 17.03125 Z M 7.617188 16.445312 C 7.941406 16.445312 8.203125 16.707031 8.203125 17.03125 C 8.203125 17.355469 7.941406 17.617188 7.617188 17.617188 C 7.292969 17.617188 7.03125 17.355469 7.03125 17.03125 C 7.03125 16.707031 7.292969 16.445312 7.617188 16.445312 Z M 7.617188 16.445312 "/>
<path fill="#ffffff" d="M 14.140625 17.03125 C 14.140625 18 14.929688 18.789062 15.898438 18.789062 C 16.867188 18.789062 17.65625 18 17.65625 17.03125 C 17.65625 16.0625 16.867188 15.273438 15.898438 15.273438 C 14.929688 15.273438 14.140625 16.0625 14.140625 17.03125 Z M 15.898438 16.445312 C 16.222656 16.445312 16.484375 16.707031 16.484375 17.03125 C 16.484375 17.355469 16.222656 17.617188 15.898438 17.617188 C 15.574219 17.617188 15.3125 17.355469 15.3125 17.03125 C 15.3125 16.707031 15.574219 16.445312 15.898438 16.445312 Z M 15.898438 16.445312 "/>
</g>
</svg>
